<svg class="w-6 h-6 " xmlns="http://www.w3.org/2000/svg" width="419.955" height="512" viewBox="0 0 419.955 512" fill="white"><g transform="translate(-46.022)"><path d="M185.255,512c-76.2-.439-139.233-155.991-139.233-235.21,0-129.4,97.075-157.734,134.487-157.734,16.86,0,34.863,6.621,50.742,12.48,11.1,4.087,22.588,8.306,28.975,8.306,3.823,0,12.832-3.589,20.786-6.738,16.963-6.753,38.071-15.146,62.651-15.146h.146c18.354,0,74,4.028,107.461,54.272l7.837,11.777-11.279,8.511c-16.113,12.158-45.513,34.336-45.513,78.267,0,52.031,33.3,72.041,49.292,81.665,7.061,4.248,14.37,8.628,14.37,18.208,0,6.255-49.922,140.566-122.417,140.566-17.739,0-30.278-5.332-41.338-10.034-11.191-4.761-20.845-8.862-36.8-8.862-8.086,0-18.311,3.823-29.136,7.881C221.5,505.73,204.752,512,185.753,512Z"></path><path d="M351.343,0c1.888,68.076-46.8,115.3-95.425,112.342C247.9,58.015,304.54,0,351.343,0Z"></path></g></svg>